<?xml version="1.0" encoding="UTF-8" standalone="no"?>
<!-- Created with Inkscape (http://www.inkscape.org/) -->

<svg
   width="210mm"
   height="297mm"
   viewBox="0 0 210 297"
   version="1.1"
   id="svg1"
   xml:space="preserve"
   inkscape:version="1.4 (86a8ad7, 2024-10-11)"
   sodipodi:docname="Logo.svg"
   xmlns:inkscape="http://www.inkscape.org/namespaces/inkscape"
   xmlns:sodipodi="http://sodipodi.sourceforge.net/DTD/sodipodi-0.dtd"
   xmlns="http://www.w3.org/2000/svg"
   xmlns:svg="http://www.w3.org/2000/svg"><sodipodi:namedview
     id="namedview1"
     pagecolor="#ffffff"
     bordercolor="#000000"
     borderopacity="0.25"
     inkscape:showpageshadow="2"
     inkscape:pageopacity="0.0"
     inkscape:pagecheckerboard="0"
     inkscape:deskcolor="#d1d1d1"
     inkscape:document-units="mm"
     inkscape:zoom="0.72604517"
     inkscape:cx="397.3582"
     inkscape:cy="561.25984"
     inkscape:window-width="2194"
     inkscape:window-height="1171"
     inkscape:window-x="696"
     inkscape:window-y="-8"
     inkscape:window-maximized="1"
     inkscape:current-layer="layer1" /><defs
     id="defs1" /><g
     inkscape:label="Layer 1"
     inkscape:groupmode="layer"
     id="layer1"><path
       style="fill:#000000;stroke-width:0.825127"
       d="m 21.640877,291.73819 c -0.07106,-0.1203 -0.03678,-0.39667 0.07622,-0.61417 0.223966,-0.4312 4.500641,-4.66538 5.231685,-5.1797 0.569267,-0.40049 1.457322,-1.2309 6.919522,-6.47033 1.074878,-1.03105 2.14819,-2.01673 2.385126,-2.1904 0.236936,-0.17368 0.742764,-0.62223 1.124047,-0.99677 0.949622,-0.93284 3.183641,-2.79359 4.648134,-3.87151 3.10299,-2.2839 7.327358,-5.79033 8.878954,-7.36997 0.603257,-0.61417 1.396538,-1.28838 1.762842,-1.49827 0.366305,-0.20987 0.758791,-0.637 0.872206,-0.94915 0.113406,-0.31216 0.295397,-0.56757 0.404424,-0.56757 0.390212,0 7.399814,-6.11459 8.455446,-7.37582 0.23475,-0.28047 1.147084,-1.07445 2.027395,-1.76441 0.88032,-0.68996 1.792646,-1.42184 2.027404,-1.62641 0.23475,-0.20455 1.435181,-1.24647 2.667625,-2.31537 1.232445,-1.06889 2.215097,-2.06877 2.183672,-2.22194 -0.03146,-0.15317 0.09957,-0.34142 0.291099,-0.41834 0.595569,-0.23916 3.927534,-2.62238 3.927534,-2.8092 0,-0.16845 3.341935,-2.83542 4.089506,-3.26354 0.195155,-0.11177 1.657865,-1.43433 3.250468,-2.93904 1.592614,-1.5047 2.993494,-2.73582 3.113094,-2.73582 0.48129,0 0.16362,0.67317 -0.80399,1.70375 -1.34031,1.42753 -4.075076,4.06418 -6.16286,5.94176 -0.91973,0.82712 -2.330149,2.10849 -3.13427,2.84749 -0.804122,0.73899 -1.606912,1.34362 -1.783983,1.34362 -0.177063,0 -1.391827,1.03738 -2.699462,2.3053 -1.307635,1.26791 -3.145788,2.91323 -4.084795,3.65626 -0.939008,0.74304 -1.899349,1.57782 -2.134099,1.85508 -0.449319,0.53066 -2.969879,2.56244 -4.577025,3.68946 -0.521985,0.36604 -1.352482,1.06752 -1.845558,1.55885 -0.493076,0.49133 -1.646241,1.54657 -2.562583,2.34499 -0.916343,0.79842 -2.260161,2.00441 -2.986261,2.67999 -0.726108,0.67558 -1.865755,1.68058 -2.532546,2.23332 -0.666792,0.55276 -1.495498,1.3065 -1.841581,1.675 -0.814833,0.86763 -2.630555,2.21453 -3.715007,2.75581 -0.4695,0.23435 -1.118474,0.74028 -1.442166,1.12429 -0.323684,0.38402 -0.678487,0.69822 -0.788441,0.69822 -0.109963,0 -0.93445,0.65324 -1.832193,1.45166 -0.89775,0.79841 -1.774198,1.45166 -1.947672,1.45166 -0.489793,0 -3.804013,3.02687 -8.294523,7.57537 -3.099958,3.13998 -3.69898,3.70024 -5.726044,5.35545 -0.661799,0.54039 -1.20327,1.11684 -1.20327,1.281 0,0.16415 -0.384139,0.56448 -0.853638,0.88963 -0.469508,0.32515 -0.853646,0.67832 -0.853646,0.78483 0,0.2631 -0.370959,0.24557 -0.530793,-0.0251 z m -5.3486,-8.41934 c -0.176982,-0.46947 -0.556055,-1.40632 -0.842379,-2.0819 -0.499311,-1.17813 -1.101503,-4.03506 -1.59962,-7.58898 -0.300309,-2.14264 -0.141339,-2.30859 2.019563,-2.1083 1.243786,0.1153 1.828281,0.0404 3.420795,-0.43886 4.695731,-1.41287 9.498682,-3.2965 10.420122,-4.08656 0.331782,-0.28449 0.701063,-0.51725 0.820624,-0.51725 0.119553,0 1.000502,-0.53999 1.957665,-1.19997 0.957164,-0.65999 2.364526,-1.56772 3.127462,-2.01717 4.009461,-2.362 8.198048,-5.13946 9.816873,-6.50959 1.142591,-0.96705 3.23995,-2.52232 5.631706,-4.17612 0.221731,-0.15332 0.667751,-0.50488 0.991153,-0.78125 0.323394,-0.27638 0.670163,-0.50348 0.7706,-0.50467 0.100428,-8.4e-4 0.604264,-0.35295 1.119627,-0.78167 0.515362,-0.42872 1.001276,-0.77949 1.079805,-0.77949 0.07856,0 0.649063,-0.45225 1.267854,-1.00499 0.618792,-0.55276 1.222008,-1.005 1.340488,-1.005 0.118472,0 0.589778,-0.33534 1.04734,-0.74521 0.457562,-0.40986 1.190938,-0.93749 1.629731,-1.17249 1.262546,-0.6762 2.884824,-1.7777 3.581677,-2.43189 0.662815,-0.62225 2.262484,-1.45706 2.792018,-1.45706 0.522073,0 0.33125,0.32885 -0.444512,0.76605 -0.410812,0.23152 -0.746934,0.55587 -0.746934,0.72078 0,0.16491 -0.138604,0.29983 -0.308012,0.29983 -0.169408,0 -0.443842,0.20294 -0.609855,0.45097 -0.166004,0.24803 -0.723656,0.74643 -1.239204,1.10754 -0.515556,0.36111 -1.775949,1.35474 -2.800874,2.20807 -1.683441,1.4016 -5.122118,3.92801 -6.856141,5.03723 -2.762004,1.76681 -5.240509,3.42037 -6.982412,4.65837 -1.124095,0.79891 -2.449451,1.66914 -2.945237,1.93383 -0.495795,0.26469 -1.688846,1.04047 -2.651228,1.72396 -2.100359,1.49169 -5.509975,3.6533 -7.041487,4.46416 -0.61083,0.3234 -1.641458,1.01495 -2.290287,1.53676 -1.18609,0.9539 -4.755829,3.00901 -5.226676,3.00901 -0.138862,0 -0.674938,0.23133 -1.19126,0.51407 -1.1677,0.63943 -2.295401,1.06579 -4.886868,1.84766 -1.54708,0.46675 -2.520246,0.6166 -4.107687,0.63246 -1.144164,0.0115 -2.080501,0.0476 -2.080751,0.0804 -0.0016,0.232 0.891402,5.68206 1.033943,6.30891 0.09819,0.43181 0.333412,1.13531 0.522702,1.56332 0.796637,1.80127 1.197342,3.1097 0.992848,3.24196 -0.116262,0.0752 -0.35619,-0.24739 -0.533172,-0.71685 z m 0.272933,-10.9268 c -0.0709,-0.0742 -0.254979,-0.0821 -0.409037,-0.0176 -0.170239,0.0713 -0.119674,0.12422 0.128933,0.13493 0.224974,0.01 0.35102,-0.043 0.280104,-0.1173 z m -3.891069,-5.22637 c -0.239976,-0.40635 -0.149477,-6.44593 0.121336,-8.09696 0.163052,-0.99405 0.431291,-1.81025 0.69649,-2.11929 0.39731,-0.46299 0.46983,-0.4762 0.920028,-0.16749 0.654039,0.44846 3.176084,0.43866 6.052399,-0.0236 3.874896,-0.62265 7.693009,-1.42239 8.285812,-1.73556 0.313893,-0.16582 1.387004,-0.58228 2.38469,-0.92547 3.178899,-1.09347 9.498778,-4.34054 12.591202,-6.46921 1.11507,-0.76754 2.267485,-1.47369 2.560922,-1.5692 0.293438,-0.0955 1.34982,-0.89281 2.347515,-1.77177 2.373398,-2.09094 3.153007,-2.64723 3.50939,-2.50411 0.161197,0.0647 0.758009,-0.19591 1.326235,-0.5792 4.313859,-2.90985 6.688524,-4.18403 6.688524,-3.58888 0,0.11388 -0.888322,0.79479 -1.974048,1.51311 -5.126966,3.39205 -7.373793,4.95301 -8.110202,5.63447 -0.440494,0.40764 -0.906735,0.74116 -1.036096,0.74116 -0.129361,0 -0.662089,0.30149 -1.18384,0.67 -0.521758,0.36849 -1.039645,0.66999 -1.150858,0.66999 -0.111221,0 -0.658605,0.34119 -1.21641,0.75821 -1.166231,0.87186 -3.538766,2.23177 -4.322054,2.47734 -0.293437,0.092 -0.702249,0.32233 -0.908461,0.51186 -0.455038,0.4182 -1.044219,0.78552 -2.230495,1.39054 -0.493988,0.25195 -0.955817,0.55572 -1.026296,0.67506 -0.0705,0.11933 -0.349609,0.21697 -0.620292,0.21697 -0.270683,0 -0.72118,0.18638 -1.001099,0.41419 -0.279927,0.22779 -0.893096,0.54039 -1.362596,0.69464 -0.469499,0.15426 -1.621914,0.66382 -2.560921,1.13237 -0.939008,0.46854 -2.439256,1.00842 -3.333893,1.19971 -0.894645,0.1913 -1.758954,0.39718 -1.920692,0.45752 -0.452746,0.16888 -8.221059,1.39685 -9.842837,1.55589 -1.132936,0.11111 -1.550975,0.0645 -1.964659,-0.21918 -0.289017,-0.19819 -0.614806,-0.30256 -0.723978,-0.23195 -0.35227,0.22784 -0.734642,4.59396 -0.621365,7.09503 0.09949,2.19668 -0.0056,2.81603 -0.373451,2.19374 z M 9.7064878,249.05859 c -0.05573,-0.17409 -0.263561,-0.81902 -0.461772,-1.43318 -0.663218,-2.05499 -0.744039,-9.59266 -0.12123,-11.30692 0.244461,-0.67288 1.3628052,-1.01317 2.1954722,-0.66804 2.358016,0.97737 10.672221,2.54112 11.311709,2.12752 0.349786,-0.22623 4.876367,-0.22952 4.87631,-0.003 -8.8e-5,0.35492 3.610989,-0.002 4.029424,-0.39833 0.208471,-0.19744 0.666484,-0.35898 1.017802,-0.35898 0.686828,0 2.672998,-0.63327 2.849423,-0.90851 0.05896,-0.092 0.731214,-0.3356 1.493869,-0.54132 0.762654,-0.20573 1.850703,-0.61692 2.417881,-0.91377 0.567178,-0.29685 1.143381,-0.53921 1.280461,-0.53857 0.317651,0.002 3.800505,-1.12499 6.971644,-2.25486 1.411726,-0.50299 2.862151,-0.87524 3.41456,-0.87634 0.528195,-8.5e-4 1.473301,-0.14479 2.100239,-0.31942 0.626937,-0.17464 1.279234,-0.26156 1.449538,-0.19317 0.582672,0.23399 0.152832,0.62757 -1.005035,0.92027 -0.636665,0.16095 -3.99816,1.24132 -7.469988,2.40083 -3.471835,1.15951 -6.386899,2.10819 -6.477922,2.10819 -0.09103,0 -1.37993,0.49556 -2.864224,1.10123 -1.62448,0.66288 -3.335829,1.19385 -4.299292,1.3339 -0.880312,0.12797 -2.080743,0.30376 -2.667625,0.39065 -0.586875,0.0869 -2.207321,0.12892 -3.600987,0.0934 -1.755575,-0.0447 -2.581047,0.0152 -2.687323,0.19514 -0.186838,0.31637 -5.629987,-0.58394 -8.757103,-1.44845 -1.11507,-0.30827 -2.267485,-0.59845 -2.560922,-0.64485 -0.293437,-0.0464 -0.848081,-0.21759 -1.232542,-0.38045 -1.4530952,-0.61554 -1.6885632,0.17777 -1.7320382,5.83533 -0.02073,2.69179 0.03646,3.20157 0.534172,4.76556 0.3986982,1.25283 0.4918022,1.81992 0.3271132,1.99226 -0.1646982,0.17235 -0.2590852,0.15084 -0.3316142,-0.0755 z m 72.3623072,-5.71372 c -0.252616,-0.26436 -0.151365,-0.90519 0.189855,-1.20154 0.212012,-0.18413 1.11888,-0.30952 2.50757,-0.34671 1.19649,-0.0321 2.75164,-0.16319 3.4559,-0.29146 0.70425,-0.12827 2.00071,-0.32817 2.88103,-0.44422 0.88032,-0.11605 2.03274,-0.31054 2.56093,-0.4322 0.52818,-0.12167 1.6806,-0.34168 2.56092,-0.48892 0.88032,-0.14725 2.17678,-0.4558 2.88104,-0.68567 0.70425,-0.22987 2.33683,-0.67577 3.62797,-0.99088 3.61934,-0.88333 3.84733,-0.96221 4.4385,-1.53556 0.30428,-0.2951 1.06268,-0.70986 1.68534,-0.92168 1.34849,-0.45872 5.51855,-2.22725 6.57407,-2.78806 0.41082,-0.21826 1.13108,-0.61521 1.60058,-0.88209 0.4695,-0.26688 1.46725,-0.78739 2.21723,-1.15667 1.38857,-0.68374 2.2507,-1.2633 3.16225,-2.1258 0.28022,-0.26513 0.86507,-0.65553 1.29967,-0.86755 0.43461,-0.21203 1.20316,-0.67347 1.70789,-1.02544 0.50473,-0.35196 1.00862,-0.63993 1.11975,-0.63993 0.11113,0 0.92291,-0.402 1.80395,-0.89333 0.88103,-0.49133 1.73395,-0.89332 1.89539,-0.89332 0.16143,0 0.68426,-0.52763 1.16186,-1.17251 0.47759,-0.64487 1.78573,-2.07173 2.90699,-3.17078 1.12124,-1.09907 2.03863,-2.12584 2.03863,-2.28171 0,-0.15588 0.40815,-0.77612 0.907,-1.37832 0.49884,-0.60221 1.1951,-1.47032 1.54722,-1.92912 0.55478,-0.72287 0.9955,-1.27176 2.41684,-3.01006 1.0732,-1.31253 2.37584,-3.20632 2.4992,-3.63339 0.0809,-0.27998 0.36753,-0.7603 0.637,-1.06738 0.52819,-0.60191 3.25614,-5.61456 3.80875,-6.99863 0.18531,-0.46416 0.53158,-1.12997 0.76948,-1.4796 0.23789,-0.34963 0.43253,-0.80465 0.43253,-1.01116 0,-0.2065 0.80737,-2.10048 1.79415,-4.20884 0.98677,-2.10835 2.05044,-4.48662 2.3637,-5.28503 0.31326,-0.79842 0.77316,-1.90094 1.02201,-2.45005 0.24884,-0.54912 0.43105,-1.29198 0.40493,-1.65082 -0.0261,-0.35884 0.10313,-0.82663 0.28725,-1.03955 0.3187,-0.36853 1.81073,-7.66582 1.81073,-8.856 0,-0.77281 0.56467,-3.19487 1.31881,-5.65684 0.35744,-1.16691 0.7289,-2.72465 0.82547,-3.46166 0.17326,-1.32246 1.0239,-4.27991 1.60588,-5.5833 0.16455,-0.3685 0.44232,-1.10343 0.61728,-1.63319 0.64263,-1.94581 3.68341,-7.61042 4.69798,-8.75177 0.38215,-0.42992 1.13859,-1.48516 1.68096,-2.34499 0.54238,-0.85984 1.44344,-2.2036 2.00236,-2.98615 0.55892,-0.78255 1.11225,-1.58502 1.22962,-1.78327 0.11738,-0.19824 0.40548,-0.50474 0.64023,-0.68113 0.23475,-0.17637 0.907,-0.83634 1.49388,-1.46658 1.26657,-1.36017 3.29241,-3.00305 4.48161,-3.63443 0.82281,-0.43685 2.8049,-1.10853 5.19905,-1.76182 0.76809,-0.20959 1.60183,-0.26318 2.53615,-0.163 1.7752,0.19033 1.77081,-0.26554 -0.009,-0.8897 -0.94805,-0.33255 -1.43285,-0.68971 -2.28008,-1.67977 -0.59182,-0.69159 -1.52303,-1.74672 -2.06937,-2.34476 -0.54633,-0.59804 -1.36471,-1.57902 -1.81861,-2.17995 -0.45391,-0.60094 -1.34362,-1.45277 -1.97715,-1.89296 -0.63352,-0.44019 -1.19945,-0.93015 -1.25763,-1.0888 -0.0582,-0.15863 -0.76847,-0.75373 -1.57844,-1.32243 -1.22958,-0.86332 -1.76945,-1.0891 -3.27052,-1.36777 -0.98882,-0.18357 -2.23,-0.27574 -2.75819,-0.20481 -1.55203,0.20841 -3.29948,0.58676 -3.41456,0.73932 -0.27986,0.37095 -1.48978,1.11206 -2.41779,1.48095 -0.56685,0.22533 -1.40633,0.6945 -1.8655,1.04258 -0.45918,0.34809 -0.93172,0.63289 -1.05012,0.63289 -0.11839,0 -0.38332,0.1524 -0.58873,0.33868 -0.2054,0.18627 -0.90165,0.7956 -1.54722,1.35405 -2.73615,2.36693 -3.96296,3.84671 -5.13331,6.19177 -1.21024,2.42498 -2.46134,4.39879 -2.78817,4.39879 -0.10926,0 -0.28351,0.23352 -0.38721,0.51894 -0.34016,0.9363 -7.03405,8.41436 -7.532,8.41436 -0.0859,0 -0.55691,0.45483 -1.04656,1.01074 -0.48965,0.55591 -1.37995,1.37958 -1.97844,1.83036 -0.59849,0.45079 -1.44857,1.1517 -1.88906,1.55758 -0.4405,0.40588 -0.92243,0.73796 -1.07097,0.73796 -0.23759,0 -1.81536,1.21631 -2.71645,2.09412 -0.84308,0.82131 -2.39271,1.92923 -2.87585,2.05613 -0.29629,0.0778 -0.53871,0.21248 -0.53871,0.29925 0,0.44115 -2.73901,1.3714 -5.33526,1.81201 -0.88031,0.1494 -1.84066,0.36817 -2.13409,0.48616 -0.29344,0.11798 -1.82106,0.20497 -3.3947,0.19329 -1.57365,-0.0116 -3.20623,0.0886 -3.62797,0.22282 -0.42174,0.13423 -1.16663,0.37824 -1.6553,0.54225 -0.48868,0.16402 -0.94484,0.23925 -1.0137,0.16719 -0.24054,-0.25172 -0.12168,-0.47431 0.33411,-0.6257 0.25261,-0.0839 0.93937,-0.44878 1.52613,-0.81082 2.18198,-1.34636 2.94257,-1.47669 6.88954,-1.18052 1.78426,0.13389 2.11172,0.0898 4.09958,-0.55216 1.18823,-0.38372 2.21797,-0.79511 2.28829,-0.91419 0.0703,-0.11908 0.35662,-0.2165 0.6362,-0.2165 0.27959,0 0.5639,-0.0941 0.63183,-0.2091 0.18578,-0.31459 2.94148,-2.19441 3.60227,-2.45733 1.02601,-0.40822 2.91514,-1.78505 2.91514,-2.12459 0,-0.18146 0.21609,-0.44986 0.48018,-0.59645 0.67584,-0.37515 2.39169,-1.75917 2.18094,-1.75917 -0.34096,0 0.87048,-1.16021 1.50038,-1.43693 0.69324,-0.30454 7.24053,-7.14269 9.1012,-9.50552 1.29377,-1.64292 2.74306,-3.90951 2.74306,-4.28995 0,-0.13972 0.15755,-0.43622 0.35009,-0.65887 0.19255,-0.22266 0.6007,-0.95111 0.907,-1.6188 0.50179,-1.09382 3.02225,-4.15318 3.42162,-4.15318 0.20434,0 3.61407,-2.13907 4.05922,-2.54653 0.58693,-0.53723 2.8365,-1.62949 4.92033,-2.38903 1.71768,-0.62608 2.32081,-0.73857 3.94809,-0.73629 3.7998,0.005 7.55495,2.03014 11.30511,6.0959 0.81853,0.88743 1.83829,1.81938 2.26613,2.07102 0.42784,0.25164 1.00659,0.85678 1.2861,1.34476 0.71908,1.25541 1.40132,1.906 2.74899,2.62148 1.59299,0.84573 2.99957,1.29112 4.93097,1.56139 1.82856,0.25588 2.8342,0.59037 2.6603,0.88486 -0.22755,0.38528 -1.52789,0.4505 -3.10966,0.15596 -2.36562,-0.4405 -6.46104,-0.44343 -8.57551,-0.006 -2.01132,0.41598 -4.25734,1.45995 -5.83262,2.71107 -1.79507,1.42568 -3.0915,2.60873 -3.0915,2.82116 0,0.11097 -0.25209,0.46656 -0.5602,0.7902 -0.70172,0.7371 -2.42754,3.14853 -2.42754,3.39192 0,0.0998 -0.19184,0.24514 -0.42633,0.32302 -0.23447,0.0779 -0.48657,0.41127 -0.56022,0.74088 -0.0736,0.3296 -0.29556,0.75002 -0.49313,0.93428 -0.19758,0.18425 -0.73348,0.86262 -1.19091,1.50749 -0.45742,0.64487 -0.90602,1.1725 -0.99689,1.1725 -0.0909,0 -0.36486,0.37687 -0.60884,0.83749 -0.244,0.46063 -0.77452,1.4405 -1.17896,2.17749 -1.26836,2.31133 -2.01407,3.88268 -2.01407,4.244 0,0.48175 -0.84307,3.07826 -1.08387,3.33813 -0.10813,0.1167 -0.19659,0.34926 -0.19659,0.51682 0,0.16755 -0.22618,0.82582 -0.50261,1.46282 -0.27644,0.63701 -0.62468,1.71093 -0.77388,2.38652 -0.14919,0.67558 -0.48616,1.93182 -0.74882,2.79165 -0.26265,0.85984 -0.59336,2.31708 -0.73491,3.23833 -0.14155,0.92125 -0.34212,2.02673 -0.44572,2.45666 -0.1036,0.42991 -0.2376,1.0329 -0.29779,1.33999 -0.0602,0.30708 -0.2577,1.21158 -0.4389,2.00999 -0.1812,0.79841 -0.42474,2.20658 -0.54121,3.12925 -0.24809,1.96562 -1.4138,5.8938 -2.21274,7.45648 -0.30765,0.60174 -0.55937,1.33236 -0.55937,1.62359 0,0.29123 -0.25002,0.94396 -0.55558,1.45053 -0.30557,0.50655 -0.7316,1.43417 -0.94673,2.06139 -1.03973,3.03134 -1.912,4.90427 -2.51126,5.39221 -0.15662,0.12753 -0.25398,0.33725 -0.21635,0.46605 0.0653,0.22355 -0.16948,0.80127 -2.14605,5.28047 -0.86369,1.95726 -2.67014,4.85324 -3.02733,4.85324 -0.23608,0 -0.86455,1.24027 -0.71028,1.40171 0.15974,0.16716 -0.7112,1.90574 -1.44084,2.87623 -0.33755,0.44895 -1.46011,1.7052 -2.49458,2.79165 -1.03448,1.08646 -2.27144,2.57837 -2.74881,3.31537 -1.21582,1.87707 -7.00114,7.69036 -7.66404,7.70109 -0.13189,0.003 -0.9962,0.51284 -1.92069,1.1349 -3.33006,2.2407 -5.12994,3.34998 -7.12286,4.38986 -1.11507,0.58183 -2.05941,1.13539 -2.09853,1.23015 -0.0391,0.0947 -0.23383,0.17227 -0.43269,0.17227 -0.19885,0 -0.56784,0.15121 -0.81997,0.33603 -1.0243,0.7508 -3.30294,1.89628 -4.47355,2.24888 -1.25559,0.37818 -2.86192,1.13226 -3.05918,1.43611 -0.10367,0.15969 -2.22819,1.13374 -3.52126,1.61442 -0.35213,0.1309 -0.8323,0.30974 -1.06705,0.39743 -0.69768,0.26058 -2.4788,0.82082 -3.73468,1.17472 -6.22548,1.75426 -5.57639,1.60984 -9.39005,2.08928 -4.66829,0.58689 -6.06278,0.6885 -6.34878,0.4626 -0.17178,-0.13568 -0.75661,-0.0818 -1.64444,0.15163 -1.4876,0.39105 -2.098156,0.44715 -2.321605,0.21331 z m 65.635545,-8.68541 c -0.35096,-0.25724 -0.47431,-0.57204 -0.47431,-1.21046 0,-1.12497 0.92217,-5.7332 1.53017,-7.64655 0.26211,-0.82482 0.41879,-1.56015 0.34818,-1.63405 -0.0706,-0.0738 -0.46715,0.22018 -0.8812,0.65347 -0.78785,0.8245 -1.28769,2.23024 -2.2914,6.44444 -0.4254,1.78609 -0.65659,2.24162 -0.90676,1.78666 -0.23569,-0.42864 0.70282,-5.94598 1.23465,-7.25831 0.0871,-0.21495 0.0673,-0.39083 -0.044,-0.39083 -0.11135,0 -0.32212,0.41796 -0.46838,0.92881 -0.14625,0.51084 -0.49143,1.30267 -0.76708,1.75961 -0.27563,0.45694 -0.96929,2.06775 -1.54146,3.57958 -0.57217,1.51184 -1.16465,2.79217 -1.31662,2.84517 -0.42328,0.14765 -0.12777,-0.98648 1.15249,-4.42319 0.61774,-1.65824 1.18031,-3.19086 1.25016,-3.40582 0.0699,-0.21496 0.25559,-0.39083 0.41275,-0.39083 0.15716,0 0.45119,-0.39241 0.65339,-0.87203 0.48951,-1.1611 1.42178,-1.51248 1.42178,-0.53589 0,0.22907 0.37018,-0.01 1.0579,-0.68318 0.58185,-0.56955 1.20608,-1.03556 1.38717,-1.03556 0.46245,0 0.42504,1.06917 -0.0848,2.4227 -0.69946,1.85706 -1.77412,7.77428 -1.50685,8.29691 0.44299,0.8662 1.48998,0.40621 1.49875,-0.65848 0.01,-1.19254 1.37939,-3.58448 2.0524,-3.58448 0.5793,0 0.69362,0.76357 0.29761,1.98775 l -0.38526,1.19097 0.60434,-0.6402 c 0.61149,-0.64777 2.12124,-3.13044 2.12124,-3.48824 0,-0.10687 -0.4444,-0.12457 -0.98757,-0.0393 -0.79062,0.12407 -0.96817,0.0934 -0.89027,-0.15382 0.0535,-0.16984 0.32985,-0.33859 0.61409,-0.37501 1.24105,-0.15902 1.66169,-0.50873 2.02968,-1.68741 0.48657,-1.55847 0.92097,-2.41758 1.14813,-2.27065 0.10858,0.0702 0.10472,0.42802 -0.009,0.84333 -0.10873,0.39674 -0.19769,0.99867 -0.19769,1.33762 0,0.60483 0.0127,0.61087 0.68104,0.32547 0.44608,-0.19049 0.73548,-0.50383 0.83884,-0.90825 0.19956,-0.78092 0.5749,-1.25888 0.98857,-1.25888 0.25258,0 0.29737,0.1928 0.20758,0.89333 -0.11394,0.88903 -0.11104,0.89333 0.60391,0.89333 0.667,0 0.73478,-0.0679 0.94733,-0.94916 0.3183,-1.31976 0.59424,-1.95416 0.85,-1.95416 0.3034,0 0.27248,0.4522 -0.10813,1.58109 -0.17935,0.532 -0.3084,1.12251 -0.28675,1.31224 0.0216,0.18975 -0.0788,0.64649 -0.22329,1.01498 -0.14446,0.36851 -0.29611,1.42564 -0.33702,2.34918 -0.0409,0.92356 -0.1426,1.96363 -0.22597,2.31127 -0.12878,0.53693 -0.0923,0.62012 0.24264,0.55263 0.25045,-0.0505 0.46075,-0.37377 0.5766,-0.88638 0.23366,-1.03398 1.30734,-2.40918 1.62733,-2.08436 0.15255,0.15483 0.16337,0.47147 0.0324,0.94916 -0.25926,0.94604 0.0479,0.91279 0.59913,-0.0648 0.24238,-0.42992 0.53997,-0.78167 0.6613,-0.78167 0.30378,0 0.28281,0.11353 -0.20621,1.11667 -0.23475,0.48154 -0.42336,1.05541 -0.41914,1.27526 0.011,0.57455 1.006,-0.73589 1.17687,-1.55 0.21356,-1.01754 0.7162,-0.77987 0.58103,0.27474 -0.11646,0.90865 -0.0214,1.01638 0.79534,0.90104 0.43091,-0.0609 1.4615,-1.09487 1.83304,-1.83911 0.3961,-0.79345 0.38399,-2.06187 -0.0231,-2.4154 -0.26528,-0.2304 -0.40111,-0.20858 -0.74824,0.12018 -0.4917,0.46566 -0.83341,0.26366 -0.49888,-0.29491 0.31726,-0.52973 1.10211,-0.60108 1.58466,-0.14408 0.97676,0.92506 0.65782,2.73161 -0.74062,4.19506 -0.89124,0.93268 -1.71152,1.22786 -2.31538,0.8332 -0.34965,-0.22851 -0.49359,-0.19763 -0.88854,0.19066 -0.50048,0.49203 -1.08252,0.60392 -1.29246,0.24844 -0.0746,-0.12637 -0.32159,-0.13815 -0.59947,-0.0285 -1.58304,0.62426 -2.09807,0.72316 -2.40004,0.4609 -0.24954,-0.21672 -0.34788,-0.15136 -0.53113,0.35299 -0.41603,1.14512 -0.64049,0.28621 -0.29582,-1.132 0.62858,-2.58645 0.63062,-2.54117 -0.0705,-1.56008 -0.35114,0.49134 -0.88875,1.13424 -1.1947,1.42867 -0.30594,0.29444 -0.66252,0.87231 -0.79241,1.28416 -0.40734,1.29165 -0.6927,0.89161 -0.54118,-0.75867 l 0.13841,-1.50749 -0.70043,0.88879 c -1.61705,2.05191 -1.83188,2.25207 -2.10957,1.96543 -0.20933,-0.21607 -0.14771,-0.58562 0.29791,-1.78665 0.91005,-2.45277 0.90184,-2.48037 -0.23959,-0.80531 -1.18591,1.74034 -1.80135,2.30606 -2.5087,2.30606 -0.25118,0 -0.81922,0.3015 -1.26232,0.67 -0.92273,0.76738 -1.11217,0.80195 -1.7665,0.32233 z m 8.37913,-5.03194 c 1.27413,-2.24113 1.25589,-2.901 -0.0591,-2.13715 -0.35094,0.20386 -0.69736,0.91027 -1.2271,2.50228 -0.40597,1.22003 -0.73764,2.31977 -0.73706,2.44386 0.002,0.37591 1.00226,-1.01313 2.02325,-2.80899 z m 2.77283,-0.95474 c 0.41082,-0.843 0.69428,-1.62186 0.62993,-1.73084 -0.18867,-0.31947 -1.10022,-0.2276 -1.45815,0.14698 -0.35068,0.36698 -1.07515,2.61073 -1.30517,4.04219 l -0.13835,0.86102 0.7624,-0.89332 c 0.41933,-0.49133 1.09853,-1.58305 1.50934,-2.42603 z m 12.16052,4.71686 c -0.0711,-0.19371 0.0292,-0.67271 0.22282,-1.06445 0.6685,-1.35285 2.66667,-6.927 2.66667,-7.43903 0,-0.5397 0.52516,-1.46385 0.71748,-1.26258 0.20353,0.21299 -0.29938,2.07565 -1.29469,4.79524 -0.53945,1.47399 -1.14597,3.1644 -1.34783,3.75646 -0.44288,1.29898 -0.77847,1.72154 -0.96445,1.21436 z m 3.15551,-1.54344 c -0.51544,-0.5394 -0.27563,-1.55646 1.14706,-4.86482 0.29389,-0.6834 0.67403,-1.57621 0.84476,-1.98402 0.36433,-0.87024 0.95325,-0.88972 1.17944,-0.039 0.0815,0.30644 0.15772,1.37048 0.16941,2.36453 0.0174,1.48109 -0.0669,1.98188 -0.46721,2.77404 -0.74331,1.47099 -2.25817,2.39319 -2.87346,1.74929 z m 1.69537,-1.02656 c 0.99626,-1.11781 1.32418,-2.45379 1.05528,-4.29915 l -0.14644,-1.00499 -0.78914,1.46236 c -0.76624,1.41994 -1.22438,2.57856 -1.51911,3.84178 -0.12536,0.53729 -0.081,0.61417 0.35437,0.61417 0.27371,0 0.74398,-0.27638 1.04504,-0.61417 z m 4.9883,0.86097 c -0.19064,-0.32279 0.2485,-2.3546 1.05196,-4.86736 0.41149,-1.28689 0.74816,-2.48221 0.74816,-2.65627 0,-0.17406 0.14405,-0.31648 0.32012,-0.31648 0.38451,0 0.41381,0.51873 0.067,1.18718 -0.13917,0.26829 -0.56191,1.59332 -0.93939,2.94447 -0.61632,2.20599 -0.65214,2.48478 -0.35104,2.73227 0.30257,0.2487 0.2973,0.31958 -0.054,0.72584 -0.42384,0.49011 -0.65985,0.56021 -0.84284,0.25035 z m 3.12337,-0.29136 c -0.48097,-0.50333 -0.21976,-2.50457 0.72569,-5.55968 0.52984,-1.71216 1.21096,-2.78545 1.60566,-2.53017 0.13308,0.0861 0.0908,0.28192 -0.11128,0.5156 -0.87193,1.00828 -2.36328,6.70971 -1.88579,7.20941 0.40499,0.42382 0.83779,0.035 0.97729,-0.87787 0.18604,-1.21753 0.86382,-2.06272 1.65415,-2.06272 0.47993,0 0.67961,0.13648 0.83815,0.57287 0.3026,0.83287 0.29359,0.85744 -0.70904,1.93704 -0.79586,0.85695 -1.04423,0.9926 -1.8779,1.0256 -0.5284,0.0209 -1.07602,-0.0826 -1.21693,-0.23008 z m 2.7096,-1.2335 c 0.89405,-0.821 0.86003,-1.8621 -0.0489,-1.49709 -0.26165,0.10507 -0.99619,1.5783 -0.99619,1.998 0,0.26668 0.43764,0.0569 1.04511,-0.50091 z M 8.9402448,231.10932 c 0,-0.0556 0.0878,-0.33201 0.195105,-0.61417 0.107309,-0.28215 0.507603,-1.36725 0.8895402,-2.41133 0.381936,-1.04408 0.870342,-2.16509 1.085355,-2.49113 0.215004,-0.32605 0.391849,-0.6778 0.392994,-0.78167 0.0032,-0.28725 1.387843,-2.04899 2.018507,-2.56813 0.543706,-0.44756 0.641908,-0.45206 3.910234,-0.17909 2.258709,0.18864 3.467907,0.3836 3.706158,0.59751 0.289501,0.25993 1.198979,0.30069 5.01514,0.22471 6.261869,-0.12467 11.7307,-0.81791 15.42384,-1.95518 1.123248,-0.3459 2.61848,-0.74915 3.322738,-0.89614 1.572148,-0.32811 6.978355,-2.59758 7.213193,-3.02802 0.09387,-0.17205 0.325741,-0.31281 0.515274,-0.31281 0.189532,0 1.052736,-0.35175 1.918231,-0.78167 0.865487,-0.42992 1.634417,-0.78167 1.708728,-0.78167 0.07429,0 0.286726,-0.13189 0.472032,-0.29309 0.185306,-0.1612 0.769075,-0.47958 1.297263,-0.7075 0.528195,-0.22792 2.1984,-1.1764 3.71157,-2.10773 2.711948,-1.66915 4.442825,-3.26128 5.422089,-4.98747 0.355198,-0.62612 0.683213,-0.80605 0.683213,-0.37477 0,0.89248 -2.757383,4.15777 -4.481613,5.30713 -0.293437,0.1956 -0.917665,0.66077 -1.387165,1.03371 -1.077313,0.85573 -1.410951,1.07136 -2.987745,1.931 -1.367145,0.74533 -3.633508,2.134 -4.161502,2.54986 -0.349431,0.27522 -4.533154,1.96955 -6.144519,2.48841 -2.210515,0.71178 -5.954131,1.63593 -6.629279,1.6365 -0.393874,3.3e-4 -1.258183,0.14277 -1.920691,0.31653 -1.560179,0.4092 -4.786997,0.91334 -8.140393,1.27182 -3.128277,0.3344 -11.719504,0.31333 -14.191774,-0.0348 -4.140773,-0.58309 -3.997821,-0.59572 -4.834456,0.42713 -0.878231,1.07373 -2.282568,3.9888 -2.946246,6.11574 -0.2874612,0.92123 -0.5881172,1.50749 -0.7731082,1.50749 -0.166497,0 -0.302713,-0.0455 -0.302713,-0.10116 z m 169.8812852,-1.853 c 0.008,-0.47446 0.57693,-1.30608 0.76125,-1.11319 0.16013,0.16758 -0.379,1.50402 -0.60673,1.50402 -0.0887,0 -0.15826,-0.17588 -0.15452,-0.39083 z m 0.53805,-3.16333 c -0.19325,-0.32723 0.25982,-1.13582 0.63642,-1.13582 0.43892,0 0.38901,0.5284 -0.093,0.98492 -0.25939,0.24567 -0.45531,0.30007 -0.5434,0.1509 z M 61.562803,201.38805 c -0.431251,-0.15515 -1.161626,-0.54355 -1.623052,-0.8631 -0.461434,-0.31956 -0.915681,-0.58102 -1.009431,-0.58102 -0.09376,0 -0.417136,-0.27638 -0.718631,-0.61417 -0.301487,-0.33779 -0.950977,-0.91286 -1.443311,-1.27796 -0.626365,-0.46448 -0.876545,-0.79978 -0.833175,-1.11666 0.08799,-0.6429 0.572953,-0.57727 4.188233,0.56673 0.749571,0.23719 1.268983,0.24071 2.737484,0.0185 0.996816,-0.15082 1.973015,-0.35885 2.169347,-0.46228 0.196332,-0.10343 0.789119,-0.29528 1.317306,-0.42633 1.04359,-0.25895 5.26307,-2.60393 8.024203,-4.45947 0.950727,-0.63892 1.863061,-1.16553 2.027395,-1.17027 0.164343,-0.005 0.490867,-0.29994 0.725616,-0.65602 0.23475,-0.35608 1.426236,-1.93508 2.647744,-3.50889 1.221507,-1.5738 2.415494,-3.33513 2.653308,-3.91407 0.614404,-1.49569 1.421371,-1.72039 1.421371,-0.39579 0,0.66328 -0.689761,1.97591 -1.477606,2.8119 -0.243695,0.25859 -0.443084,0.61989 -0.443084,0.80288 0,0.36033 -0.653563,1.07195 -0.984491,1.07195 -0.112172,0 -0.382468,0.32662 -0.600659,0.72582 -0.456457,0.83515 -2.772055,3.29416 -3.102031,3.29416 -0.12169,0 -0.221255,0.0974 -0.221255,0.21647 0,0.11906 -0.539036,0.59643 -1.197858,1.06083 -2.756875,1.94329 -3.636469,2.5507 -4.222279,2.9157 -0.340123,0.21192 -0.934934,0.66713 -1.321815,1.01159 -1.185122,1.05517 -5.261932,2.22064 -7.769942,2.22128 -1.247084,3.1e-4 -2.697518,-0.2739 -3.710917,-0.70157 -0.339066,-0.14309 -0.656709,-0.21806 -0.705871,-0.16661 -0.123206,0.12894 1.00831,0.94437 1.557791,1.12262 0.246865,0.0801 0.692183,0.43142 0.989597,0.78073 0.493608,0.57974 1.851518,1.07745 3.854723,1.41284 0.211601,0.0354 0.380098,0.16491 0.374427,0.28775 -0.01508,0.32668 -2.389191,0.32127 -3.303137,-0.008 z M 44.255157,191.14602 c -0.471968,-0.15476 -1.096188,-0.43921 -1.387173,-0.63211 -0.290977,-0.1929 -1.079774,-0.51416 -1.752881,-0.71391 -0.673107,-0.19975 -1.633457,-0.64282 -2.134107,-0.98461 -0.500642,-0.34178 -1.512033,-1.0178 -2.247521,-1.50225 -2.491467,-1.64109 -3.037657,-2.10089 -3.037657,-2.55722 0,-0.53589 0.391051,-0.56546 1.707284,-0.12909 1.717544,0.5694 6.474293,1.65507 7.896173,1.80221 0.762945,0.0789 1.675271,0.19679 2.027404,0.26187 0.352124,0.0651 1.552556,0.15606 2.667625,0.20218 1.11507,0.0461 3.175269,0.1986 4.578227,0.33885 1.829999,0.18293 2.855222,0.18781 3.627975,0.0173 0.985959,-0.21758 3.433443,-0.60516 5.2089,-0.82487 0.394454,-0.0488 1.042686,-0.28973 1.440512,-0.53537 0.574477,-0.3547 0.723326,-0.3804 0.723326,-0.12488 0,0.40762 -0.878264,0.88303 -2.95228,1.5981 -1.54749,0.53353 -1.951527,0.5698 -7.465188,0.67001 -3.812854,0.0693 -5.920247,0.0268 -6.09251,-0.12279 -0.236145,-0.20509 -0.910922,-0.27547 -2.16341,-0.22563 -0.744958,0.0296 -4.634156,-0.67032 -6.295602,-1.13305 -0.880319,-0.24518 -1.792645,-0.44445 -2.027395,-0.44282 l -0.426823,0.003 0.426823,0.25329 c 0.23475,0.13931 0.47484,0.32279 0.533527,0.40774 0.257391,0.37259 3.664982,2.23075 4.816171,2.62627 0.696312,0.23923 1.642264,0.64602 2.102117,0.90397 0.459861,0.25795 1.252142,0.53429 1.76064,0.61409 0.50849,0.0798 0.924529,0.23418 0.924529,0.34306 0,0.28388 -1.451458,0.217 -2.458686,-0.1133 z M 115.33755,179.8087 c 0.39969,-1.30443 0.47604,-2.12114 0.30255,-3.23667 -0.10275,-0.66062 -0.24251,-1.29546 -0.3106,-1.41074 -0.0681,-0.11529 -0.15865,-0.72075 -0.20124,-1.34548 -0.0479,-0.70268 -0.27129,-1.45194 -0.58571,-1.96465 -0.27954,-0.45584 -0.69797,-1.21174 -0.92985,-1.67981 -0.23187,-0.46806 -0.78171,-1.30812 -1.22188,-1.86681 -0.44015,-0.55868 -0.80029,-1.09447 -0.80029,-1.19065 0,-0.37854 -1.98317,-2.45649 -2.34445,-2.45649 -0.21132,0 -0.43338,-0.13409 -0.49348,-0.29798 -0.0601,-0.16389 -0.84399,-0.79201 -1.74199,-1.39583 -0.89799,-0.60381 -2.17957,-1.47448 -2.84796,-1.93481 -0.66838,-0.46033 -1.33071,-0.8372 -1.47185,-0.8375 -0.31325,-6.5e-4 -2.83674,-1.38033 -4.98628,-2.72617 -0.87243,-0.54623 -1.94506,-1.16549 -2.38364,-1.37612 -0.43856,-0.21064 -0.89759,-0.57891 -1.02007,-0.81838 -0.12246,-0.23946 -0.29181,-0.41144 -0.37634,-0.38216 -0.0845,0.0293 -0.53343,-0.19784 -0.99756,-0.50472 -0.46413,-0.30688 -1.11581,-0.73381 -1.44819,-0.94874 -0.63734,-0.41213 -2.9043,-2.19305 -4.29566,-3.37468 -1.84125,-1.56369 -2.2688,-1.98826 -2.2688,-2.25303 0,-0.37021 -0.70011,-1.01648 -1.10114,-1.01648 -0.17634,0 -0.45308,-0.25903 -0.614987,-0.57562 -0.161907,-0.31659 -0.466233,-0.67188 -0.676293,-0.78952 -0.210052,-0.11765 -0.382187,-0.33599 -0.382525,-0.48521 -3.39e-4,-0.14922 -0.288163,-0.4723 -0.639618,-0.71797 -0.351447,-0.24567 -0.639279,-0.51049 -0.639617,-0.5885 -3.39e-4,-0.078 -0.408756,-0.68102 -0.907607,-1.34 -0.880933,-1.16374 -1.1207,-1.55571 -2.098996,-3.43148 -0.256246,-0.49133 -0.530881,-0.94358 -0.610298,-1.005 -0.07937,-0.0614 -0.688158,-0.96591 -1.35278,-2.00999 -0.664622,-1.04408 -1.550773,-2.40082 -1.969232,-3.01499 -0.645223,-0.94698 -1.451579,-2.53933 -2.261871,-4.46664 -0.103284,-0.24567 -0.585874,-1.55217 -1.072417,-2.90333 -0.896178,-2.4887 -1.512154,-4.19198 -1.736475,-4.80165 -0.06775,-0.18425 -0.421419,-1.59124 -0.785828,-3.12666 -0.364417,-1.53541 -0.899871,-3.59565 -1.189897,-4.5783 -0.290033,-0.98267 -0.62818,-2.38967 -0.751435,-3.12666 -0.123247,-0.737 -0.360505,-1.65056 -0.527235,-2.03013 -0.418475,-0.95272 -0.954115,-3.17157 -0.963423,-3.99093 -0.004,-0.3734 -0.194219,-1.73416 -0.422169,-3.02391 -0.988298,-5.591768 -1.514783,-9.183678 -1.810786,-12.353858 -0.174142,-1.86509 -0.423459,-4.28224 -0.55403,-5.37144 -0.239767,-2.00003 -0.200405,-2.85392 0.346205,-7.51126 0.165786,-1.41258 0.457505,-4.02223 0.648264,-5.79922 0.190758,-1.777 0.477904,-3.58599 0.638109,-4.01999 0.388018,-1.05115 1.086274,-4.088921 1.259401,-5.479064 0.07646,-0.614164 0.221062,-1.418161 0.321281,-1.786659 0.10021,-0.368499 0.342397,-1.473995 0.53818,-2.456657 0.549651,-2.758728 0.689812,-3.406491 1.256425,-5.806644 0.289985,-1.228329 0.638738,-2.987072 0.77502,-3.908318 0.136281,-0.921247 0.342074,-1.859709 0.457312,-2.085471 0.115245,-0.225763 0.395172,-1.170049 0.622058,-2.098412 0.226885,-0.928365 0.66,-2.235392 0.962479,-2.904504 0.302479,-0.669113 0.493891,-1.275245 0.425363,-1.346959 -0.06856,-0.07171 -0.392946,0.138656 -0.72093,0.467491 -0.327983,0.328836 -0.672066,0.597883 -0.764631,0.597883 -0.170771,0 -5.628761,5.844022 -6.987437,7.481637 -0.977207,1.177837 -3.08881,4.498822 -4.024938,6.330153 -0.775375,1.516847 -1.280461,1.979431 -1.280461,1.172712 0,-0.528613 1.405361,-4.205612 1.800638,-4.711209 0.144049,-0.184249 0.415749,-0.686747 0.603781,-1.116662 0.188032,-0.429915 0.696789,-1.133412 1.130572,-1.563327 0.433784,-0.429915 1.057689,-1.217523 1.386455,-1.750241 0.614614,-0.995903 7.787082,-8.095122 9.148702,-9.055278 2.121791,-1.496191 4.496536,-2.897584 4.496536,-2.653509 0,0.06926 -0.459934,0.58826 -1.02207,1.153333 -1.131428,1.137339 -2.414921,3.30865 -2.5,4.229298 -0.03025,0.327118 -0.110269,0.745509 -0.17787,0.929758 -0.921165,2.510914 -2.977404,9.580978 -3.345104,11.501622 -0.141097,0.736997 -0.330903,1.792243 -0.42179,2.344991 -0.0909,0.552748 -0.312916,1.658243 -0.493375,2.456657 -0.754701,3.339011 -1.466549,7.013467 -1.632537,8.426969 -0.199744,1.70097 -0.730351,5.14224 -1.18,7.65297 -0.63152,3.5262 -0.771987,4.83608 -0.893984,8.33648 -0.07372,2.11468 -0.02371,4.76489 0.120577,6.39363 0.212408,2.39741 1.328953,8.92503 1.953149,11.41867 0.28229,1.12771 0.765921,4.183338 1.057455,6.681078 0.136209,1.16692 0.371459,2.62417 0.522783,3.23833 0.151332,0.61416 0.39589,1.66941 0.54348,2.34498 0.147582,0.67559 0.340615,1.32884 0.428952,1.45167 0.08835,0.12283 0.207778,0.57508 0.265417,1.00499 0.335106,2.49972 1.694499,8.35192 2.159232,9.29554 0.295099,0.59918 0.796467,1.74267 1.114134,2.54109 0.317676,0.79841 0.755307,1.69134 0.972521,1.98427 0.217207,0.29294 0.394923,0.72526 0.394923,0.96072 0,0.23545 0.360134,1.12996 0.80029,1.9878 1.755236,3.42082 1.974047,3.87947 1.974047,4.13779 0,0.14764 0.412942,0.80527 0.917649,1.4614 0.504708,0.65613 1.181436,1.64521 1.50383,2.19797 0.623704,1.06932 1.452894,2.3232 1.949963,2.94869 0.166254,0.2092 0.446552,0.66144 0.622888,1.00499 0.290405,0.56578 3.890525,4.2278 4.852995,4.93645 0.218,0.1605 0.39636,0.41664 0.39636,0.56918 0,0.29724 2.7769,2.68452 5.20814,4.4774 1.93578,1.42751 4.5858,3.08391 6.28394,3.92779 0.74531,0.37037 1.61078,0.86392 1.92327,1.09678 0.31249,0.23286 1.62339,0.99441 2.9131,1.69234 1.28972,0.69793 2.7771,1.60963 3.30529,2.02598 0.52819,0.41637 1.21249,0.95831 1.52067,1.20431 0.30819,0.246 1.20352,0.79812 1.98962,1.22691 1.62396,0.88583 3.47421,2.79449 4.28946,4.42489 0.29174,0.58346 0.6623,1.06084 0.82345,1.06084 0.32953,0 1.26984,1.92366 1.08955,2.22895 -0.064,0.10826 -0.018,0.26041 0.10216,0.3381 0.5439,0.35177 0.94722,1.79043 1.30774,4.66481 l 0.38982,3.10794 -0.48966,1.02757 c -0.52817,1.10837 -1.38363,1.62568 -1.0869,0.65727 z m -84.906605,-5.18473 c -0.407166,-0.96944 -0.729205,-2.9081 -0.829601,-4.99417 -0.07155,-1.48733 0.257697,-1.94365 0.501682,-0.69523 0.07808,0.39929 0.318127,0.86827 0.533527,1.04217 0.501683,0.40502 4.661176,2.4973 4.964672,2.4973 0.126223,0 1.069618,0.30739 2.096439,0.68311 2.593508,0.94896 5.448077,1.15486 13.7112,0.98896 4.107404,-0.0825 6.836831,-0.0527 7.016523,0.0765 0.658379,0.4734 -0.09378,0.64856 -2.903021,0.67604 -1.616857,0.0158 -4.092159,0.0897 -5.500666,0.16417 -2.949803,0.156 -8.3043,-0.19306 -10.552128,-0.68789 -2.364751,-0.52057 -5.496384,-1.61062 -7.256895,-2.52595 -0.874415,-0.45464 -1.653169,-0.85539 -1.73057,-0.89056 -0.07743,-0.0352 -0.0048,0.7572 0.160423,1.76083 0.386873,2.3444 0.300325,3.12356 -0.211585,1.90472 z m 19.891532,-6.25822 c -0.04807,-0.0468 -0.759606,-0.15321 -1.581238,-0.23653 -0.821633,-0.0833 -1.733958,-0.20852 -2.027396,-0.27822 -1.062649,-0.25241 -3.104837,-1.24805 -4.471902,-2.18018 -0.768284,-0.52386 -1.909722,-1.22372 -2.536538,-1.55524 -0.626809,-0.33154 -1.539135,-0.9809 -2.027396,-1.44304 -0.488253,-0.46214 -1.324363,-1.18448 -1.858011,-1.60519 -0.533648,-0.42072 -1.475986,-1.36793 -2.094092,-2.10493 -0.618098,-0.73699 -1.558702,-1.8574 -2.090228,-2.48979 -1.132372,-1.34725 -1.404055,-1.85139 -2.20866,-4.09851 -0.33605,-0.93854 -0.647571,-1.52771 -0.708517,-1.34 -0.253938,0.78218 -0.34647,6.28723 -0.123924,7.37317 0.236024,1.15175 0.148122,1.6027 -0.234395,1.20239 -0.49815,-0.52131 -0.642699,-2.67978 -0.428936,-6.4052 0.118947,-2.07299 0.274619,-4.01236 0.34593,-4.30971 0.13837,-0.57693 0.473387,-0.72278 0.600586,-0.26148 0.636367,2.30774 1.157884,3.65666 1.877991,4.85748 2.245077,3.74378 7.053787,8.48034 11.674827,11.49966 2.571319,1.68006 4.288516,2.32792 6.950891,2.62241 2.744558,0.30359 6.881129,0.27341 7.256879,-0.0529 0.214843,-0.1866 0.393018,-0.15199 0.718332,0.1395 0.237944,0.21321 0.388212,0.46286 0.333928,0.55477 -0.09819,0.16625 -7.201449,0.27382 -7.368131,0.11157 z m 0.01936,-11.66981 c -3.388628,-0.92608 -5.970989,-2.93821 -10.723351,-8.35541 -2.905029,-3.31144 -7.203103,-10.23548 -7.203103,-11.60393 0,-0.23633 -0.232435,-0.97969 -0.516515,-1.65192 -0.284081,-0.67222 -0.670857,-1.95646 -0.859502,-2.85385 -0.188645,-0.8974 -0.490124,-2.08388 -0.669961,-2.63662 -0.598829,-1.84059 -0.895702,-3.44095 -1.046042,-5.63884 -0.132136,-1.93172 -0.34468,-2.67575 -0.667784,-2.33762 -0.228918,0.23956 -0.945323,7.21383 -1.095365,10.66345 -0.09789,2.25052 -0.242799,3.659 -0.373378,3.62909 -0.117375,-0.0269 -0.246091,-0.32807 -0.286025,-0.66927 -0.03993,-0.34121 -0.161568,-0.67792 -0.270296,-0.74824 -0.202736,-0.13113 0.05791,-4.36105 0.43947,-7.1319 0.109947,-0.79841 0.256181,-2.10491 0.324967,-2.90332 0.177643,-2.06193 0.94008,-6.2425 1.283018,-7.03498 0.159463,-0.3685 0.355859,-0.97149 0.43643,-1.33999 0.379581,-1.73598 1.555225,-4.80165 1.841363,-4.80165 0.284597,0 0.212439,0.50343 -0.275079,1.9192 -0.395625,1.1489 -0.457135,1.83785 -0.476719,5.33911 -0.01645,2.947 0.08017,4.64588 0.362046,6.36497 0.211488,1.28974 0.465829,3.10642 0.565217,4.03705 0.272039,2.54737 0.741829,4.107 2.248481,7.46457 0.275596,0.61417 0.780481,1.76991 1.121975,2.56833 0.564443,1.31969 1.562888,3.0695 3.504027,6.14092 1.118691,1.77008 8.15921,8.82235 8.807651,8.82235 0.08745,0 0.435462,0.24345 0.773358,0.54098 0.706694,0.62229 2.73371,1.46901 3.516755,1.46901 0.550909,0 0.931337,0.56044 0.600514,0.88465 -0.103622,0.10156 -0.71659,0.0403 -1.362152,-0.13614 z m 72.348043,-2.591 c 0.003,-0.4772 1.20254,-2.47973 1.89725,-3.16844 0.36392,-0.36077 0.66167,-0.88368 0.66167,-1.16201 0,-0.35078 0.21284,-0.61272 0.69358,-0.85361 0.38148,-0.19114 1.23878,-0.77373 1.90512,-1.29464 0.66634,-0.52091 1.43083,-1.09785 1.69888,-1.2821 0.26804,-0.18426 0.76261,-0.61137 1.09904,-0.94916 0.33644,-0.3378 0.69767,-0.61417 0.80274,-0.61417 0.62542,0 3.8489,-6.47235 4.67158,-9.37997 0.26066,-0.92124 0.70196,-2.32824 0.98066,-3.12664 0.7951,-2.27777 1.21794,-9.45957 0.74291,-12.61829 -0.11082,-0.737 -0.30117,-2.04349 -0.42298,-2.90333 -0.29769,-2.10129 -0.64217,-3.65672 -0.98923,-4.46664 -0.26303,-0.61384 -0.78809,-2.88407 -0.85226,-3.68499 -0.0148,-0.18425 -0.17334,-0.68675 -0.35239,-1.11667 -0.17906,-0.42991 -0.39505,-1.12213 -0.48,-1.53828 -0.0849,-0.41614 -0.48002,-1.4103 -0.87795,-2.20924 -0.39794,-0.79894 -0.72352,-1.72732 -0.72352,-2.06307 0,-0.33576 -0.24008,-1.17858 -0.53353,-1.872948 -0.29344,-0.69436 -0.53353,-1.47022 -0.53353,-1.72413 0,-0.25392 -0.18622,-0.73536 -0.41384,-1.06987 -0.22761,-0.33452 -0.52502,-1.30478 -0.6609,-2.15614 -0.13588,-0.85136 -0.49837,-2.55291 -0.80554,-3.78124 -1.00017,-3.9997 -0.6641,-10.12108 0.82447,-15.01757 0.52986,-1.74288 2.91031,-7.23826 3.2657,-7.53901 0.14515,-0.12283 0.88373,-1.3165 1.64129,-2.65258 0.75756,-1.33609 1.49742,-2.477462 1.64414,-2.536387 0.14672,-0.05893 0.26676,-0.24659 0.26676,-0.417032 0,-0.90523 10.01557,-11.451945 12.30426,-12.956771 0.91048,-0.598649 2.44922,-2.096026 2.14951,-2.091728 -0.1441,0.002 -1.07828,0.357704 -2.07598,0.790305 -2.81357,1.219972 -4.72206,1.93207 -4.84194,1.806625 -0.35347,-0.36991 1.0122,-1.138653 4.27894,-2.40863 0.92278,-0.358744 2.0752,-0.881736 2.56092,-1.162203 2.1057,-1.215899 7.32981,-2.612791 8.56149,-2.289287 0.79967,0.210037 0.55397,0.667165 -0.4398,0.818247 -0.45995,0.06992 -1.28716,0.3463 -1.83825,0.614165 -0.5511,0.267864 -1.10712,0.487026 -1.23562,0.487026 -0.31625,0 -1.83921,0.819109 -2.88424,1.551269 -0.4695,0.328939 -1.84677,1.290557 -3.0606,2.136929 -1.25183,0.872877 -2.59104,2.021235 -3.09444,2.653466 -0.91543,1.14969 -2.10385,2.425022 -4.27208,4.584511 -0.68778,0.684994 -1.73026,1.848442 -2.31665,2.585439 -1.13445,1.425835 -2.12947,2.655055 -3.621,4.473256 -0.8881,1.08263 -2.17038,3.56963 -3.16315,6.13504 -0.89685,2.31753 -1.73044,4.35556 -2.05528,5.02498 -0.47089,0.97034 -1.1665,2.93778 -1.1172,3.1598 0.0232,0.1046 -0.0161,0.44143 -0.0872,0.74852 -0.2495,1.07591 -0.41102,4.16527 -0.41455,7.9283 -0.002,3.00006 0.069,3.97809 0.34193,4.66142 0.19002,0.47562 0.34549,1.16746 0.34549,1.53742 0,0.84246 0.41672,2.40306 0.76,2.84612 0.14275,0.18425 0.32694,0.66668 0.40932,1.07207 0.15077,0.74197 0.85525,2.662448 1.6493,4.496128 0.23576,0.54445 0.45215,1.21389 0.48087,1.48766 0.0287,0.27378 0.25843,0.91179 0.51047,1.41781 0.25203,0.50602 0.45824,1.1287 0.45824,1.38371 0,0.85878 0.68786,3.64511 1.18533,4.80144 0.27145,0.63096 0.56196,1.53546 0.64559,2.00999 0.0836,0.47453 0.28586,1.26348 0.44941,1.75321 0.3168,0.94867 1.01458,9.22669 0.99798,11.83952 -0.0101,1.5931 -0.30589,3.30308 -1.11678,6.45654 -0.24983,0.9716 -0.45425,1.94462 -0.45425,2.16226 0,0.21764 -0.28224,0.98044 -0.62721,1.6951 -0.34497,0.71467 -1.14679,2.41285 -1.78183,3.77373 -0.63505,1.36089 -1.60125,3.04817 -2.14713,3.74951 -0.54587,0.70135 -0.99249,1.35238 -0.99249,1.44674 0,0.28434 -2.64521,2.22528 -3.24878,2.38382 -0.30895,0.0811 -0.6121,0.28492 -0.67367,0.45284 -0.0616,0.16792 -0.47846,0.54742 -0.9264,0.84334 -1.01259,0.66895 -4.01232,3.69793 -4.18603,4.22685 -0.14697,0.44749 -0.56959,0.53078 -0.56658,0.11167 z m -60.366114,-7.2051 c -0.499691,-0.55251 -2.287553,-1.89569 -2.523287,-1.89569 -0.184314,0 -1.578359,-1.26052 -3.281916,-2.96756 -0.886402,-0.8882 -1.685611,-1.92472 -1.930153,-2.50324 -0.229539,-0.54304 -0.512184,-1.04869 -0.628099,-1.12366 -0.115915,-0.075 -0.688424,-0.87708 -1.272234,-1.78248 -0.58381,-0.9054 -1.344964,-1.92859 -1.691459,-2.27376 -0.587108,-0.58489 -0.93224,-1.32726 -2.93939,-6.32258 -0.419523,-1.04408 -0.941419,-2.32435 -1.159771,-2.84505 -0.218351,-0.5207 -0.397003,-1.10144 -0.397003,-1.29053 0,-0.18909 -0.297809,-0.96119 -0.661799,-1.71578 -0.794611,-1.64729 -1.898655,-6.09534 -1.900317,-7.65608 -6.53e-4,-0.61646 -0.09436,-1.47258 -0.208229,-1.9025 -0.859405,-3.24454 -1.544675,-23.869318 -0.86076,-25.906558 0.454747,-1.35459 0.878997,-3.67358 0.761606,-4.16304 -0.07058,-0.29413 0.05638,-1.21138 0.282,-2.03835 0.225643,-0.82697 0.532123,-2.10657 0.68106,-2.84357 0.148937,-0.737 0.349874,-1.44974 0.446536,-1.58388 0.09665,-0.13413 0.122021,-0.30009 0.05638,-0.3688 -0.06566,-0.0687 0.03121,-0.65557 0.215254,-1.30415 0.184056,-0.64857 0.334638,-1.43556 0.334638,-1.74886 0,-0.55098 -0.01629,-0.54416 -0.496117,0.20803 -1.003527,1.57306 -4.693851,9.55483 -5.419113,11.72097 -0.411263,1.22832 -1.078611,3.18807 -1.482995,4.35498 -0.904945,2.61137 -1.982049,6.34119 -2.644275,9.15663 -0.457473,1.944978 -0.936063,2.903318 -1.449893,2.903318 -0.400424,0 -0.449408,-0.72923 -0.12486,-1.858738 0.182724,-0.63593 0.485913,-1.70899 0.673744,-2.38458 0.187839,-0.67558 0.649579,-2.13282 1.026095,-3.23832 0.376516,-1.10549 0.748894,-2.38298 0.827504,-2.83885 0.144372,-0.83722 1.577141,-5.05222 2.159023,-6.35153 0.173344,-0.38706 0.315175,-0.79465 0.315175,-0.90576 0,-0.52346 1.768326,-4.72323 2.754584,-6.54212 0.0999,-0.18425 0.455465,-0.98825 0.790127,-1.78666 0.33467,-0.79842 1.228412,-2.40641 1.98609,-3.57332 0.757686,-1.16692 1.868368,-2.87541 2.468188,-3.79666 0.59982,-0.92124 1.304909,-2.12724 1.566857,-2.67999 0.261948,-0.55274 0.761799,-1.35306 1.110779,-1.778469 0.570266,-0.695163 0.667654,-0.73879 0.96189,-0.430879 0.294228,0.307911 0.283403,0.401099 -0.106906,0.920368 -0.238855,0.31778 -0.434283,0.77459 -0.434283,1.01514 0,0.24056 -0.425864,1.38045 -0.946364,2.5331 -0.520492,1.15265 -1.298625,3.20122 -1.729167,4.55239 -0.430549,1.35116 -0.903114,2.65765 -1.050139,2.90332 -0.147033,0.24566 -0.432679,1.50191 -0.63477,2.79165 -0.202091,1.28975 -0.457046,2.52111 -0.566557,2.73637 -0.10951,0.21525 -0.293566,1.62225 -0.409013,3.12665 -0.115447,1.50441 -0.26365,3.13728 -0.329331,3.62861 -0.06566,0.49133 -0.150477,1.94858 -0.188435,3.23832 -0.03799,1.28975 -0.142766,3.55922 -0.232927,5.04326 -0.104542,1.72074 -0.07606,3.4603 0.07848,4.801648 0.133321,1.15686 0.293631,3.15862 0.356247,4.44836 0.225498,4.64468 1.059374,11.36131 1.592812,12.82959 0.119779,0.3297 0.21778,0.80384 0.21778,1.05365 0,0.24981 0.132151,0.7709 0.293663,1.15795 0.161519,0.38707 0.492415,1.40725 0.735327,2.26708 0.809663,2.86591 2.985108,8.22686 3.534452,8.70997 0.618202,0.54365 2.628941,3.90054 2.824305,4.7151 0.06791,0.28319 0.258117,0.63182 0.422661,0.77473 0.164545,0.14291 0.29918,0.49285 0.29918,0.77765 0,0.28478 0.0974,0.5808 0.216457,0.6578 0.119052,0.077 0.400754,0.51005 0.625994,0.96234 0.725866,1.45753 3.285143,4.00714 6.590329,6.56545 1.485117,1.14951 1.957262,1.60678 1.957262,1.89556 0,0.1593 -0.08818,0.28964 -0.195953,0.28964 -0.107776,0 -0.323853,0.049 -0.48017,0.10903 -0.156326,0.0599 -0.510378,-0.14103 -0.786788,-0.44666 z m 35.468094,-3.18097 c -1.57602,-3.52261 -2.12826,-7.1019 -2.40321,-15.57633 -0.26455,-8.15403 0.1714,-15.43315 1.09003,-18.20038 0.51924,-1.56414 1.37381,-4.89613 1.91916,-7.48285 0.23307,-1.1055 0.55431,-2.22384 0.71388,-2.485208 0.37206,-0.60942 0.48851,-1.68633 0.19412,-1.79527 -0.25575,-0.0946 -3.91555,7.660638 -5.08948,10.784808 -0.42112,1.12072 -0.76567,2.33957 -0.76567,2.70854 0,0.7603 -0.55262,2.28875 -0.82752,2.28875 -0.20044,0 -0.72287,1.36903 -1.09213,2.86193 -0.13767,0.55662 -0.34371,0.92686 -0.48782,0.87658 -0.41453,-0.1446 -0.18607,-1.89854 0.57426,-4.40851 0.3907,-1.28975 0.88872,-2.99824 1.10673,-3.79665 0.78866,-2.8884 3.75488,-9.11513 6.17876,-12.970558 3.14104,-4.99615 3.28373,-5.18604 3.65485,-4.86372 0.35054,0.30445 0.19579,1.43589 -0.27262,1.99325 -0.16204,0.19281 -0.47692,0.90507 -0.69974,1.58279 -0.22281,0.67773 -0.54623,1.52497 -0.71872,1.88276 -0.53307,1.10575 -1.79158,5.875018 -2.29324,8.690488 -0.26263,1.474 -0.57307,2.87021 -0.68986,3.10269 -0.1168,0.23249 -0.29803,1.13698 -0.40273,2.00999 -0.10471,0.87301 -0.26206,1.61228 -0.34967,1.6428 -0.0876,0.0305 -0.12958,0.98527 -0.0933,2.12165 0.0363,1.1364 -0.0493,3.72441 -0.19031,5.75115 -0.5013,7.20663 -0.50369,7.27851 -0.29178,8.764 0.10502,0.73625 0.0678,1.16404 -0.1222,1.4036 -0.21431,0.27024 -0.22181,0.59588 -0.0347,1.50931 0.13121,0.64059 0.34443,2.16971 0.47384,3.39803 0.23161,2.19837 1.11127,6.71963 1.47737,7.59331 0.57031,1.36099 0.65674,2.12426 0.24014,2.12054 -0.0685,-6.1e-4 -0.42777,-0.67898 -0.79845,-1.50749 z m -10.608,-2.30434 c -0.16562,-0.42096 -0.36979,-1.21762 -0.4537,-1.77036 -0.0839,-0.55276 -0.34053,-1.5977 -0.57027,-2.32211 -0.35324,-1.11379 -0.39982,-1.71365 -0.30178,-3.8859 0.0638,-1.41284 0.15921,-2.61406 0.21209,-2.6694 0.22484,-0.2353 0.54528,0.21847 0.37678,0.53356 -0.0989,0.18499 -0.11061,0.80641 -0.026,1.38094 0.0846,0.57452 0.10351,1.56642 0.0419,2.20422 -0.0711,0.73558 0.008,1.55225 0.21601,2.23332 0.1804,0.59053 0.39608,1.52595 0.47929,2.0787 0.0832,0.55274 0.2868,1.34941 0.45243,1.77036 0.20076,0.51026 0.23,0.83982 0.0877,0.98871 -0.14226,0.14889 -0.31378,-0.0318 -0.51454,-0.54204 z m -3.78707,-4.84119 c -0.11409,-0.8089 0.72234,-4.77658 1.30648,-6.19747 0.20199,-0.49134 0.63167,-1.57334 0.95485,-2.40445 0.67221,-1.72874 2.06715,-4.23387 2.42757,-4.3596 0.4205,-0.14668 0.26645,0.58515 -0.39708,1.88639 -0.35212,0.69055 -0.64023,1.43647 -0.64023,1.65759 0,0.22113 -0.096,0.46416 -0.21341,0.54008 -0.11737,0.0759 -0.21341,0.51489 -0.21341,0.97549 0,0.85763 -0.61907,2.14148 -0.63344,1.31367 -0.008,-0.44643 -0.41029,-0.53302 -0.5191,-0.11168 -0.0397,0.15355 -0.36684,1.23392 -0.7271,2.40084 -0.36025,1.1669 -0.72131,2.64928 -0.80235,3.29415 -0.081,0.64486 -0.23099,1.17249 -0.33325,1.17249 -0.10225,0 -0.19655,-0.0754 -0.20953,-0.1675 z m 25.55782,-10.87992 c -0.36627,-0.29039 -0.39296,-0.69348 -0.36553,-5.52038 0.0163,-2.86391 0.16997,-7.16685 0.34155,-9.5621 0.17157,-2.39523 0.31207,-4.86149 0.31219,-5.48056 1.2e-4,-0.61906 0.16286,-1.72456 0.36166,-2.45665 0.19878,-0.7321 0.37226,-1.93408 0.3855,-2.67108 0.0621,-3.457618 0.79504,-8.693698 1.61412,-11.531778 0.23522,-0.815 0.51285,-2.02958 0.61698,-2.69906 0.10411,-0.66949 0.44104,-1.96241 0.74872,-2.87317 0.30767,-0.91075 0.84325,-2.60111 1.19016,-3.75635 0.80593,-2.68383 2.27941,-5.86839 3.64151,-7.87022 0.82071,-1.20617 -0.0403,-0.63409 -1.98158,1.31653 -4.06893,4.08862 -4.96206,5.1559 -7.56014,9.03439 -0.30466,0.45481 -0.67815,1.20504 -0.82996,1.66718 -0.36627,1.11495 -0.86726,1.31806 -0.66997,0.27163 0.25639,-1.35995 1.24328,-3.17872 2.77314,-5.11073 1.82445,-2.30403 5.63952,-6.25842 8.67331,-8.99004 1.23244,-1.10969 3.01375,-2.83226 3.95845,-3.82793 2.03678,-2.146655 4.81389,-4.746163 5.85841,-5.483762 0.41082,-0.290099 0.84298,-0.64727 0.96035,-0.793713 0.29288,-0.365403 3.23971,-2.328411 3.87456,-2.581003 0.28351,-0.112799 1.35076,-0.774843 2.37167,-1.471207 1.84903,-1.261223 3.18689,-1.798171 3.54543,-1.422954 0.35905,0.375731 -0.0436,0.78955 -1.6063,1.650698 -0.86331,0.475746 -1.85775,1.082146 -2.20987,1.347557 -0.35213,0.26541 -0.92834,0.612129 -1.28047,0.770486 -0.96784,0.435256 -3.4698,2.250116 -4.01209,2.910285 -0.26355,0.320826 -0.90916,0.94831 -1.43469,1.39441 -0.52554,0.446099 -1.20134,1.049097 -1.5018,1.339994 -0.30045,0.290899 -1.01957,0.930899 -1.59804,1.422239 -0.57848,0.49133 -1.21371,1.06159 -1.41162,1.26725 -0.19791,0.20566 -0.55918,0.48557 -0.80281,0.62202 -0.24364,0.13646 -0.44298,0.39032 -0.44298,0.56414 0,0.17383 -0.12608,0.39642 -0.28018,0.49464 -0.1541,0.0982 -0.734,0.83185 -1.28867,1.63026 -0.55468,0.79842 -1.33796,1.90391 -1.74065,2.45666 -1.12241,1.54072 -3.81638,7.41479 -4.66032,10.16163 -0.41513,1.35116 -0.90931,3.4114 -1.09818,4.57831 -0.18886,1.16691 -0.48523,2.64897 -0.6586,3.29346 -0.17337,0.64449 -0.40211,1.85048 -0.50832,2.67999 -0.54088,4.22412 -1.3231,9.759828 -1.39674,9.884518 -0.0459,0.0777 -0.13908,0.63683 -0.20706,1.24247 -0.068,0.60563 -0.16649,1.40265 -0.21892,1.77115 -0.34465,2.42255 -0.73786,10.04141 -0.76937,14.90744 -0.0205,3.16295 -0.0958,5.74762 -0.16747,5.74371 -0.0716,-0.004 -0.30805,-0.14807 -0.52538,-0.32036 z M 81.862832,104.66959 c -0.06783,-0.68826 -0.260787,-1.41688 -0.428686,-1.61917 -0.187476,-0.22586 -0.359005,-1.14341 -0.444512,-2.37777 -0.07663,-1.105488 -0.236823,-2.763738 -0.356085,-3.684978 -0.119262,-0.92125 -0.271571,-2.12724 -0.338469,-2.67999 -0.06687,-0.55275 -0.195751,-1.1055 -0.286339,-1.22833 -0.30673,-0.41589 -0.460289,-5.97545 -0.2242,-8.11707 0.429154,-3.89297 2.091834,-10.01955 3.519139,-12.96714 0.30943,-0.63903 0.45215,-1.17012 0.33485,-1.24599 -0.12105,-0.0783 -0.0414,-0.5158 0.19536,-1.07263 0.2199,-0.51723 0.66054,-1.79466 0.97921,-2.83874 0.48142,-1.57729 1.26257,-3.289511 2.44531,-5.359975 0.10525,-0.184249 0.24168,-0.589475 0.30318,-0.900501 0.0615,-0.311027 0.83622,-1.450361 1.72162,-2.531854 0.8854,-1.081492 2.02716,-2.636009 2.53724,-3.454481 0.87537,-1.404573 6.40317,-7.187459 7.4088,-7.75068 0.23304,-0.130518 0.34868,-0.321216 0.25697,-0.423774 -0.0917,-0.102557 -0.0313,-0.142208 0.13426,-0.08811 0.16555,0.0541 0.54302,-0.136354 0.83881,-0.423223 0.29578,-0.286868 0.75967,-0.643994 1.03087,-0.793612 0.27119,-0.149617 1.68669,-1.050904 3.14554,-2.002859 1.45887,-0.951955 2.73219,-1.730287 2.82962,-1.729626 0.0974,6.6e-4 0.8974,-0.286039 1.77772,-0.63711 0.88031,-0.351071 2.31837,-0.879235 3.19568,-1.173697 0.8773,-0.294461 1.76561,-0.711259 1.97404,-0.926217 0.20842,-0.214957 0.45097,-0.392451 0.539,-0.39443 0.088,-0.0019 1.6486,-0.202964 3.46792,-0.446633 3.15196,-0.422156 8.74224,-0.603521 9.4793,-0.307538 0.54957,0.220697 0.39255,0.496208 -0.55616,0.97589 -0.69015,0.348944 -1.33426,0.453673 -2.82768,0.459759 -3.70801,0.01511 -7.43309,0.384623 -8.44562,0.837772 -0.52674,0.235733 -1.43787,0.501925 -2.02475,0.591539 -1.32102,0.201713 -6.20794,2.093515 -8.05055,3.116486 -0.75232,0.417671 -1.922,1.146827 -2.59929,1.620347 -0.67728,0.473521 -1.63897,1.112196 -2.13709,1.419278 -0.49812,0.307082 -1.6182,1.294507 -2.48908,2.194277 -1.48606,1.535377 -1.53092,1.609216 -0.72976,1.201151 0.4695,-0.239137 1.09373,-0.51008 1.38717,-0.602095 0.29343,-0.09202 1.01369,-0.395219 1.60058,-0.673785 1.37915,-0.65463 2.96078,-1.123201 5.27556,-1.562935 1.84322,-0.350152 3.57134,-0.230496 4.96813,0.343998 0.23475,0.09655 0.59488,0.231757 0.80029,0.300457 0.48841,0.163355 0.47512,0.512942 -0.0302,0.795998 -0.29136,0.163184 -0.58019,0.134003 -1.03769,-0.104842 -2.16713,-1.131372 -9.04325,0.134116 -13.14188,2.418648 -1.38259,0.770642 -1.93668,1.258962 -3.20116,2.821205 -0.84103,1.039088 -1.7751,2.145818 -2.07569,2.4594 -0.3006,0.313583 -0.72333,0.871649 -0.93941,1.240148 -0.21607,0.368498 -0.66497,0.971495 -0.99755,1.339994 -1.53867,1.704865 -1.98077,2.379998 -3.09939,4.733175 -1.01043,2.125555 -1.15402,2.572755 -0.92064,2.867035 0.24495,0.30887 0.36395,0.26309 1.04251,-0.40099 2.37605,-2.32537 6.52259,-4.567165 10.04934,-5.433112 1.05777,-0.259724 1.97693,-0.304521 3.87085,-0.188654 2.52151,0.154262 3.2434,0.341605 2.84979,0.739573 -0.13144,0.132887 -0.88129,0.141886 -1.97883,0.02375 -0.97755,-0.105224 -2.56016,-0.104605 -3.54181,0.0013 -4.18257,0.451592 -9.78676,3.697683 -12.27758,7.111473 -0.40847,0.55983 -0.89503,1.17731 -1.08124,1.37218 -0.18622,0.19487 -0.68749,1.50702 -1.11395,2.91589 -1.434751,4.73993 -2.085814,7.02371 -2.226459,7.80989 -0.07687,0.42991 -0.228047,0.96209 -0.335872,1.18262 -0.194049,0.39689 -0.414296,2.61403 -0.259673,2.61403 0.04412,0 0.482203,-0.45637 0.973513,-1.01416 0.49131,-0.55779 1.167711,-1.18381 1.503111,-1.39115 0.33541,-0.20734 0.87133,-0.77188 1.19095,-1.25453 0.91738,-1.38532 4.29683,-3.99196 7.65145,-5.90171 0.28332,-0.16129 0.96958,-0.38199 1.52503,-0.49046 0.55545,-0.10847 1.48917,-0.30461 2.07493,-0.43587 1.08721,-0.24363 1.7211,-0.16674 1.51416,0.18367 -0.0636,0.10757 -0.48667,0.25769 -0.94032,0.3336 -1.33378,0.2232 -6.68779,2.80928 -8.34096,4.02883 -0.98417,0.72604 -5.21108,5.08218 -6.14474,6.33261 -0.298075,0.39921 -0.720793,0.72583 -0.939379,0.72583 -0.580873,0 -0.730746,0.8517 -0.68944,3.91802 0.02678,1.98721 0.14538,3.03712 0.454118,4.01998 0.396777,1.26313 0.54202,2.35045 0.863841,6.46694 l 0.139685,1.786658 0.618759,-1.34 c 0.986816,-2.137048 2.494316,-4.385178 3.669046,-5.471638 0.59766,-0.55274 1.2699,-1.2836 1.49387,-1.62411 0.22397,-0.34052 0.97092,-1.04402 1.65988,-1.56333 0.68897,-0.51931 1.66887,-1.29799 2.17756,-1.73039 0.77969,-0.66276 3.32807,-2.2288 3.62687,-2.2288 0.0507,0 0.0921,0.12562 0.0919,0.27916 -1.2e-4,0.15354 -0.48448,0.5638 -1.07637,0.91169 -0.59187,0.34789 -1.65294,1.15189 -2.35792,1.78666 -2.70743,2.43784 -8.51646,8.69916 -8.51646,9.17955 0,0.1328 -0.24149,0.716168 -0.53665,1.296398 -0.389589,0.76587 -0.567418,1.53038 -0.648924,2.78988 -0.06178,0.9542 -0.153365,1.86054 -0.203583,2.01408 -0.209342,0.63996 -0.479808,0.1982 -0.595239,-0.97221 z M 162.91568,43.241809 c -0.58688,-0.04481 -1.97938,-0.232505 -3.09445,-0.417099 -1.11507,-0.184596 -3.90007,-0.43553 -6.18889,-0.557635 -2.28882,-0.122104 -4.83374,-0.326624 -5.65537,-0.45449 -0.82163,-0.127865 -1.78198,-0.27754 -2.1341,-0.33261 -0.35213,-0.05507 -1.36007,-0.203491 -2.23989,-0.329824 -1.53716,-0.220725 -2.85861,-0.585963 -3.30878,-0.914517 -0.11737,-0.08567 -0.83763,-0.279777 -1.60057,-0.431355 -2.00197,-0.397745 -2.92174,-1.329716 -1.31231,-1.329716 0.90249,0 1.76969,0.253557 3.233,0.945274 0.52819,0.249682 1.24845,0.545177 1.60057,0.656656 0.94804,0.300138 5.55411,0.850368 7.14924,0.854032 0.76295,0.0018 1.73032,0.102944 2.14973,0.224868 0.4194,0.121926 2.19605,0.321285 3.94809,0.443022 1.75204,0.121735 4.04984,0.330028 5.10622,0.462873 1.97674,0.248583 5.7733,0.116364 6.17561,-0.215073 0.12468,-0.102716 0.61083,-0.256613 1.08033,-0.341992 0.46951,-0.08538 1.61483,-0.403939 2.54518,-0.707909 0.93035,-0.303971 1.8281,-0.497833 1.99501,-0.430808 0.16691,0.06703 0.7502,-0.03926 1.29621,-0.23619 1.54025,-0.555534 2.98237,-0.918812 4.72741,-1.190864 2.27007,-0.353904 3.50241,-0.868824 4.41179,-1.84342 l 0.79045,-0.847118 -0.46702,-0.520229 c -0.48183,-0.536729 -0.65012,-1.597533 -0.2302,-1.451052 0.13025,0.04544 0.55827,0.653953 0.95116,1.352262 0.56642,1.006734 0.66044,1.328776 0.454,1.555163 -0.14319,0.15703 -0.42165,0.54954 -0.61879,0.872244 -0.19715,0.322703 -0.60661,0.651914 -0.90992,0.731578 -0.3033,0.07967 -1.07094,0.393506 -1.70585,0.697427 -0.63493,0.303921 -1.42465,0.552601 -1.75496,0.552622 -0.93749,5.9e-5 -3.63521,0.604513 -5.46798,1.22516 -1.72885,0.585457 -7.21993,1.797987 -8.89752,1.964737 -0.5282,0.0525 -1.44052,0.05879 -2.0274,0.01399 z M 168.46434,35.122 c -1.05637,-0.09571 -2.73698,-0.247294 -3.73468,-0.336858 -0.99768,-0.08956 -2.65409,-0.38809 -3.68089,-0.663394 -3.28123,-0.879755 -4.86918,-2.536259 -1.83183,-1.910913 0.80713,0.166175 2.48362,0.245478 4.20952,0.199122 2.15837,-0.05797 2.8902,-0.0079 2.95712,0.202129 0.0878,0.275552 -2.66924,0.415095 -5.65535,0.286239 -0.61623,-0.02659 -1.12041,0.0069 -1.12041,0.0745 0,0.06756 0.64824,0.318108 1.44052,0.556763 1.51653,0.456812 5.94511,0.713537 14.31454,0.829811 2.15093,0.02988 3.9598,0.105631 4.01971,0.168328 0.0599,0.0627 -0.0674,0.209778 -0.28282,0.326845 -0.53204,0.289078 -8.25347,0.483234 -10.63543,0.267428 z m 19.10021,-1.596296 c -3.35346,-0.802045 -8.21992,-1.355359 -10.71468,-1.218253 -2.12617,0.116851 -2.8995,-0.03561 -2.26434,-0.446422 0.14267,-0.09227 1.75281,-0.208635 3.57811,-0.258597 2.49263,-0.06823 3.71714,-0.0025 4.9193,0.263808 0.9107,0.201788 2.62007,0.354728 3.96587,0.354831 2.45506,1.9e-4 2.88593,0.105282 2.29273,0.559208 -0.31015,0.237334 -0.28522,0.285331 0.21673,0.417169 0.6258,0.164367 0.78853,0.824795 0.19374,0.786286 -0.20541,-0.0133 -1.18976,-0.219412 -2.18746,-0.45803 z m -6.82912,-3.896367 c 0,-0.197226 0.25492,-0.674599 0.5665,-1.060829 0.6962,-0.863038 1.78061,-3.211907 1.78084,-3.857378 1e-4,-0.261335 -0.14388,-0.600264 -0.31994,-0.753177 -0.17606,-0.152912 -0.32012,-0.462843 -0.32012,-0.688735 0,-0.297599 -0.24979,-0.475149 -0.90699,-0.644687 -0.49885,-0.128687 -1.72329,-0.495954 -2.72099,-0.816149 -2.9223,-0.937874 -7.08237,-2.015199 -7.97426,-2.065081 -0.45375,-0.02538 -1.9903,-0.284751 -3.41456,-0.576384 -3.83417,-0.785097 -8.00743,-0.933974 -10.59242,-0.377877 -1.11507,0.23988 -3.0292,0.64962 -4.25362,0.910534 -1.22443,0.260915 -2.32883,0.561885 -2.45422,0.668824 -0.12539,0.106939 -1.05442,0.265517 -2.06451,0.352396 -1.79892,0.154727 -1.83917,0.147351 -1.96602,-0.360274 -0.13355,-0.534421 0.12872,-0.856514 0.70809,-0.869615 0.17607,-0.004 1.04038,-0.206131 1.92069,-0.449223 1.70578,-0.471032 4.45334,-1.134331 7.00007,-1.689907 1.32726,-0.289544 2.27583,-0.305247 6.4023,-0.105984 6.25532,0.302063 6.75639,0.392296 13.0605,2.351954 1.46719,0.456084 3.09978,0.917571 3.62796,1.025525 1.39608,0.285336 4.54734,1.185158 4.83469,1.380516 0.15037,0.102221 0.23285,0.723239 0.21166,1.593618 -0.0285,1.173936 -0.1787,1.716968 -0.84897,3.070829 -1.36982,2.76685 -2.27668,3.946339 -2.27668,2.961104 z M 79.365598,29.003506 c 0,-0.450502 0.525042,-0.845701 4.054792,-3.052044 5.14362,-3.215125 8.10869,-4.865233 12.27108,-6.829047 4.52274,-2.133822 7.09869,-3.132831 10.88393,-4.22101 1.52588,-0.438661 3.35053,-0.994658 4.05479,-1.235549 2.33488,-0.798648 5.05291,-1.299902 8.62924,-1.591391 4.72224,-0.384885 13.41096,-0.375633 16.01963,0.01706 2.5491,0.383724 8.2221,1.866544 9.3133,2.434325 0.45302,0.235726 1.30386,0.561509 1.89074,0.723961 1.02096,0.282611 2.33743,1.432588 2.10229,1.836412 -0.19697,0.338276 -2.36321,0.091 -3.6528,-0.416972 -0.73715,-0.290363 -1.62619,-0.527933 -1.97564,-0.527933 -0.34944,0 -0.63535,-0.08348 -0.63535,-0.185519 0,-0.478073 -8.57227,-2.047806 -11.18301,-2.047806 -0.5354,0 -1.62347,-0.09848 -2.41793,-0.218836 -4.42293,-0.670066 -5.1161,-0.711809 -8.1669,-0.491816 -3.10051,0.223578 -5.45214,0.606004 -8.64311,1.405558 -0.93901,0.235285 -1.87667,0.426433 -2.08369,0.424773 -0.58194,-0.0047 -5.48244,1.726265 -6.55943,2.316884 -0.52818,0.289661 -1.88759,0.897874 -3.02088,1.351585 -1.1333,0.45371 -2.22233,1.012002 -2.42006,1.240651 -0.19772,0.228647 -1.33522,0.835897 -2.52777,1.349443 -3.70546,1.595682 -7.77524,3.691584 -7.57363,3.900356 0.10243,0.106068 1.49351,-0.207023 3.85551,-0.867763 5.75167,-1.608955 8.13839,-1.934456 14.04493,-1.915458 2.6954,0.0087 4.98087,-0.03608 5.07882,-0.09943 0.2635,-0.170423 7.764,0.239932 9.74261,0.533021 0.939,0.139093 3.1478,0.443087 4.90843,0.675543 4.33864,0.572828 11.43353,2.643352 12.52286,3.654584 0.28193,0.261716 0.79425,0.643783 1.13849,0.849038 0.34424,0.205255 0.66043,0.481628 0.70265,0.614164 0.14395,0.451937 -0.73977,0.242062 -2.27669,-0.540689 -0.84413,-0.429915 -1.65229,-0.782581 -1.79591,-0.783701 -0.14361,-0.0011 -1.19861,-0.251968 -2.34443,-0.557438 -1.14582,-0.305471 -2.15419,-0.53441 -2.24081,-0.508755 -0.0866,0.02565 -0.92577,-0.172861 -1.86477,-0.441149 -0.93901,-0.268287 -2.70396,-0.643464 -3.92211,-0.833726 -1.21816,-0.190262 -2.28297,-0.390004 -2.36626,-0.443872 -0.41252,-0.266803 -7.30062,-0.596919 -11.74479,-0.562876 -8.64994,0.06626 -10.27815,0.140435 -11.84427,0.539585 -2.65632,0.677001 -7.38289,1.692781 -10.99751,2.36346 -3.53009,0.654992 -6.085472,1.354653 -6.914557,1.893199 -0.665735,0.43244 -2.041785,0.60037 -2.041785,0.249175 z"
       id="path1" /></g></svg>
